<?xml version="1.0" encoding="utf-8"?>
<!-- Generator: Adobe Illustrator 19.0.0, SVG Export Plug-In . SVG Version: 6.00 Build 0)  -->
<svg version="1.1" id="Layer_1" xmlns="http://www.w3.org/2000/svg" xmlns:xlink="http://www.w3.org/1999/xlink" x="0px" y="0px" width="311.8px" height="311.8px" viewBox="0 0 311.8 311.8" style="enable-background:new 0 0 311.8 311.8;" xml:space="preserve">
    <style type="text/css">
    .BlackAsYourSoul {
        fill: #16161D;
    }
    
    .st0 {
        fill-rule: evenodd;
        clip-rule: evenodd;
        fill: #FFFFFF;
    }
    
    .st1 {
        fill-rule: evenodd;
        clip-rule: evenodd;
        fill: #FFFFFF;
        stroke: #FFFFFF;
        stroke-width: 0.4724;
        stroke-miterlimit: 22.9256;
    }
    </style>
    <g>
        <circle id="XMLID_5_" class="st0" cx="155.9" cy="155.9" r="135.8" />
        <g>
            <path id="XMLID_4_" class="st1" d="M155.9,281.9c69.4,0,126-56.6,126-126c0-69.4-56.6-126-126-126c-69.4,0-126,56.6-126,126
      C29.9,225.3,86.5,281.9,155.9,281.9z" />
            <path id="XMLID_3_" class="BlackAsYourSoul" d="M155.9,14.2c78.3,0,141.7,63.4,141.7,141.7c0,78.3-63.4,141.7-141.7,141.7
      c-78.2,0-141.7-63.5-141.7-141.7C14.2,77.6,77.6,14.2,155.9,14.2z" />
            <path id="XMLID_2_" class="st0" d="M156.3,225.6c-5.6,0.2-11.5,1-17.1,6.4c-7.8,8.3-9.4,18.3-3,29.2c0.8,1.4,1.8,2.6,2.8,3.8
      c7,5.8,13.9,6.7,21.9,5.6c4.3-0.6,8.1-2,11.9-5.6c7.8-8.5,9.3-18.5,3-29.4c-1-1.1-1.8-2.5-3-3.6
      C167.3,226.7,161.8,225.8,156.3,225.6z" />
            <path id="XMLID_1_" class="st0" d="M148,210.5l-17.3-102.1c-1.7-9.5-3.2-19.3-3.6-25.9c-0.4-6.9-0.2-10.9,0.2-14
      c0.4-3.6,1-5.8,1.6-8c0.6-2.2,1.4-4.1,2.2-5.7c0.8-1.4,1.8-3,2.6-4c4.7-5.6,9.1-7.7,13.5-8.9c9.7-2,17.3-1.9,25.5,3.2
      c2.5,1.6,4.1,3.4,5.9,5.4c0.8,1.2,1.6,2.6,2.4,4.2c0.9,1.6,1.6,3.4,2.2,5.9c0.6,2.2,1.2,4.8,1.6,8.2c0.2,3.7,0.4,7.5,0,14.5
      c-0.4,6.4-2,15.7-3.4,25l-18.5,102.1H148z" />
        </g>
    </g>
</svg>
